# xmcd
#
# Track frame offsets:
# 150
# 14427
# 29485
# 43205
# 57350
# 71822
# 84817
# 99109
# 113997
# 127843
# 141431
# 155589
# 170036
# 185278
# 199570
# 214207
#
# Disc length: 3039 seconds
#
#
# Revision: 4
# Processed by: cddbd v1.5.1PL0 Copyright (c) Steve Scherf et al.
# Submitted via: FreeRIP 2.70 
#
DISCID=e10bdd10
DTITLE=Blind Willie Johnson - Dark was the Night
DYEAR=1900
DGENRE=
TTITLE0=If I Had My Way I'd Tear the Building Down
TTITLE1=Dark was the Night
TTITLE2=Lord I Just Can't Keep From Crying
TTITLE3=Church, I'm Fully Saved Today
TTITLE4=Jesus Make Up My Dying Bed
TTITLE5=Bye and Bye I'm Goin' to See the King
TTITLE6=Let Your Light Shine on Me
TTITLE7=John the Revelator
TTITLE8=I Know His Blood Can Make Me Whole
TTITLE9=God Moves on the Water
TTITLE10=Trouble Will Soon Be Over
TTITLE11=Praise God I'm Satisfied
TTITLE12=Motherless Children Have a Hard Time
TTITLE13=It's Nobody's Fault Buy Mine
TTITLE14=The Soul of a Man
TTITLE15=Keep Your Lamp Trimmed and Burning
EXTD=
EXTT0=
EXTT1=
EXTT2=
EXTT3=
EXTT4=
EXTT5=
EXTT6=
EXTT7=
EXTT8=
EXTT9=
EXTT10=
EXTT11=
EXTT12=
EXTT13=
EXTT14=
EXTT15=
PLAYORDER=
